<?xml version="1.0" encoding="utf-8"?>
<!-- Generator: Adobe Illustrator 20.1.0, SVG Export Plug-In . SVG Version: 6.00 Build 0)  -->
<svg version="1.1" id="Layer_1" xmlns="http://www.w3.org/2000/svg" xmlns:xlink="http://www.w3.org/1999/xlink" x="0px" y="0px"
	 viewBox="0 0 485 485" style="enable-background:new 0 0 485 485;" xml:space="preserve">
<g>
	<path d="M399.6,400.3c-105.2,0-209.2,0-314.6,0c0-104.9,0-209.7,0-315.6c33.9,0,68.2,0,103.4,0c0,16.6,0,32.9,0,51.3
		c-16.5,0-33.3,0-51,0c0,71.2,0,140.3,0,210.7c69.3,0,138.8,0,210.2,0c0-25.3,0-50.8,0-77.2c18.1,0,34.4,0,51.9,0
		C399.6,312.5,399.6,355.6,399.6,400.3z"/>
	<path d="M400,84.8c0,51.7,0,102.1,0,155.9c-17.3-19-32.6-35.9-49.6-54.6c-28.8,29.8-54.2,56.1-79.2,82c-18.6-19.1-35-36-52.9-54.5
		c24.9-23.5,51.5-48.6,80.6-76.1c-20.7-18.3-37.8-33.5-55-48.7c0.9-1.3,1.9-2.7,2.8-4C297.4,84.8,348.1,84.8,400,84.8z"/>
</g>
</svg>
